<svg height="512pt" viewBox="-11 0 512 512" width="512pt" xmlns="http://www.w3.org/2000/svg"><path d="m490 267c0 135.308594-109.691406 245-245 245s-245-109.691406-245-245 109.691406-245 245-245 245 109.691406 245 245zm0 0" fill="#2e4c89"/><path d="m366.398438 375.210938-23.058594-39.933594h-196.683594l-23.054688 39.933594 5.347657 5.238281v-3.234375c0-.847656.691406-1.539063 1.542969-1.539063h16.023437c.851563 0 1.542969.691407 1.542969 1.539063v3.230468l19.992187-19.570312c1.59375-1.558594 4.832031-2.875 7.070313-2.875h10.902344c1.953124 0 3.539062 1.566406 3.539062 3.496094v23.171875h18.265625c2.207031 0 4 1.792969 4 4v17.871093l.753906.191407c1.878907.476562 3.773438 1.453125 4.828125 2.488281l19.445313 19.035156v-3.195312c0-.816406.664062-1.480469 1.480469-1.480469h15.5625c.816406 0 1.480468.664063 1.480468 1.480469v3.191406l19.441406-19.03125c.632813-.621094 1.613282-1.25 2.757813-1.761719l.59375-.265625v-18.523437c0-2.207031 1.792969-4 4-4h18.261719v-23.171875c0-1.929688 1.589844-3.496094 3.542968-3.496094h10.902344c2.238282 0 5.476563 1.316406 7.070313 2.875l19.992187 19.574219v-3.238281c0-.847657.691406-1.535157 1.542969-1.535157h16.023437c.851563 0 1.542969.6875 1.542969 1.535157v3.234374zm0 0" fill="#37c47a"/><path d="m146.65625 335.277344-23.054688 39.933594 5.347657 5.238281v-3.234375c0-.847656.691406-1.539063 1.542969-1.539063h16.023437c.851563 0 1.542969.691407 1.542969 1.539063v3.230468l19.992187-19.570312c.414063-.402344.9375-.789062 1.523438-1.140625l14.121093-24.457031zm0 0" fill="#2bb381"/><path d="m366.808594 319.546875-55.304688-95.800781h-133.007812l-36.519532 63.253906h.023438c7.71875 0 14 6.28125 14 14s-6.28125 14-14 14c-5.183594 0-9.707031-2.839844-12.128906-7.035156l-6.6875 11.582031c-2.160156 3.742187-2.160156 8.351563 0 12.097656 2.164062 3.742188 6.15625 6.050781 10.480468 6.050781h222.667969c4.320313 0 8.320313-2.308593 10.476563-6.050781 2.167968-3.746093 2.167968-8.355469 0-12.097656zm0 0" fill="#02af8e"/><path d="m160.621094 331.644531c-2.160156-3.746093-2.160156-8.355469 0-12.097656l55.3125-95.800781h-37.4375l-36.519532 63.253906h.023438c7.71875 0 14 6.28125 14 14s-6.28125 14-14 14c-5.183594 0-9.707031-2.839844-12.128906-7.035156l-6.6875 11.582031c-2.160156 3.742187-2.160156 8.351563 0 12.097656 2.164062 3.742188 6.15625 6.050781 10.480468 6.050781h37.4375c-4.324218 0-8.316406-2.308593-10.480468-6.050781zm0 0" fill="#159e97"/><path d="m330.515625 208.015625-39.867187-69.050781c-2.246094 4.742187-7.0625 8.035156-12.648438 8.035156-7.71875 0-14-6.28125-14-14s6.28125-14 14-14c.390625 0 .773438.027344 1.152344.058594l-15.105469-26.164063-19.046875-10.015625-19.050781 10.015625-33 57.160157c.347656-.027344.695312-.054688 1.050781-.054688 7.71875 0 14 6.28125 14 14s-6.28125 14-14 14c-5.546875 0-10.335938-3.25-12.601562-7.941406l-21.914063 37.957031c-2.160156 3.746094-2.160156 8.355469 0 12.101563 2.164063 3.742187 6.15625 6.050781 10.480469 6.050781h150.070312c4.320313 0 8.320313-2.308594 10.480469-6.050781 2.160156-3.746094 2.160156-8.355469 0-12.101563zm0 0" fill="#159e97"/><path d="m196.617188 220.117188c-2.15625-3.746094-2.15625-8.355469 0-12.101563l66.691406-115.511719-18.308594-9.625-19.050781 10.015625-33 57.160157c.347656-.027344.695312-.054688 1.050781-.054688 7.71875 0 14 6.28125 14 14s-6.28125 14-14 14c-5.546875 0-10.335938-3.25-12.601562-7.941406l-21.914063 37.957031c-2.160156 3.746094-2.160156 8.355469 0 12.101563 2.164063 3.742187 6.15625 6.050781 10.480469 6.050781h37.136718c-4.324218 0-8.316406-2.308594-10.484374-6.050781zm0 0" fill="#0f9390"/><path d="m272.601562 97.691406c-1.027343 0-2.054687-.253906-2.96875-.730468l-24.632812-12.953126-24.628906 12.953126c-.917969.476562-1.9375.730468-2.964844.730468-1.359375 0-2.652344-.421875-3.75-1.21875-1.980469-1.4375-2.953125-3.828125-2.535156-6.234375l4.699218-27.429687-19.925781-19.421875c-1.75-1.707031-2.367187-4.210938-1.613281-6.535157.753906-2.328124 2.726562-3.988281 5.148438-4.339843l27.539062-4 12.316406-24.957031c1.082032-2.191407 3.269532-3.554688 5.714844-3.554688s4.636719 1.363281 5.71875 3.554688l12.316406 24.953124 27.535156 4.003907c2.421876.351562 4.398438 2.011719 5.152344 4.339843.753906 2.324219.132813 4.828126-1.617187 6.535157l-19.925781 19.421875 4.703124 27.429687c.414063 2.40625-.558593 4.796875-2.535156 6.234375-1.097656.796875-2.394531 1.21875-3.746094 1.21875zm0 0" fill="#ffd00d"/><path d="m234.691406 88.472656c-1.980468-1.4375-2.953125-3.828125-2.535156-6.234375l4.699219-27.429687-19.925781-19.421875c-1.40625-1.371094-2.066407-3.253907-1.886719-5.144531l-15.613281 2.269531c-2.421876.351562-4.394532 2.011719-5.148438 4.339843-.753906 2.324219-.136719 4.828126 1.613281 6.535157l19.925781 19.421875-4.699218 27.425781c-.417969 2.410156.554687 4.800781 2.535156 6.238281 1.097656.796875 2.394531 1.21875 3.75 1.21875 1.023438 0 2.046875-.253906 2.964844-.734375l15.160156-7.96875c-.292969-.148437-.570312-.320312-.839844-.515625zm0 0" fill="#ffaf10"/><path d="m399.015625 357h-10.898437c-2.5 0-5.996094 1.421875-7.769532 3.160156l-19.296875 18.886719v5.621094h42.507813v-23.171875c0-2.472656-2.042969-4.496094-4.542969-4.496094zm0 0" fill="#b7092b"/><path d="m341.941406 379.050781-19.292968-18.890625c-1.777344-1.738281-5.273438-3.160156-7.769532-3.160156h-10.902344c-2.5 0-4.542968 2.023438-4.542968 4.496094v23.171875h42.507812zm0 0" fill="#b7092b"/><path d="m311.449219 384.667969v-23.171875c0-2.324219 1.8125-4.226563 4.101562-4.449219-.230469-.023437-.457031-.046875-.671875-.046875h-10.902344c-2.496093 0-4.539062 2.023438-4.539062 4.496094v23.171875zm0 0" fill="#a00026"/><path d="m361.449219 384.667969v-7.453125c0-1.066406-.875-1.9375-1.9375-1.9375h-16.027344c-1.066406 0-1.941406.871094-1.941406 1.9375v7.453125zm0 0" fill="#fe3745"/><path d="m295.65625 417.84375v13.980469h29.4375c2.480469 0 4.5 2.019531 4.5 4.5v24.148437c0 2.480469-2.019531 4.5-4.5 4.5h-3.3125v34.726563c36.09375-11.902344 68.476562-31.957031 94.964844-58v-23.855469zm0 0" fill="#ffaf10"/><path d="m295.65625 417.84375h15.34375v13.980469h-15.34375zm0 0" fill="#ef9614"/><path d="m282.171875 383.667969c-2.75 0-5 2.25-5 5v18.972656c1.46875-.722656 3.160156-1.203125 4.492187-1.203125h10.582032c1.882812 0 3.410156 1.507812 3.410156 3.363281v9.042969h38.695312v-35.175781zm0 0" fill="#ef9614"/><path d="m420.824219 383.667969h-52.183594v35.175781h52.183594c2.75 0 5-2.25 5-5v-25.175781c0-2.75-2.25-5-5-5zm0 0" fill="#ef9614"/><path d="m281.664062 406.4375h10.582032c1.882812 0 3.410156 1.507812 3.410156 3.363281v9.042969h11.34375c-2.75 0-5-2.25-5-5v-25.175781c0-2.75 2.25-5 5-5h-24.828125c-2.75 0-5 2.25-5 5v18.96875c1.46875-.71875 3.160156-1.199219 4.492187-1.199219zm0 0" fill="#ef8318"/><path d="m336.007812 417.84375v76.683594c10.71875-4.292969 21.070313-9.308594 30.980469-15.007813v-61.675781zm0 0" fill="#fe3745"/><path d="m336.007812 417.84375v76.683594c4.058594-1.625 8.0625-3.355469 12.011719-5.183594v-71.5zm0 0" fill="#ea2a3d"/><path d="m333.851562 383.667969h35.289063v35.175781h-35.289063zm0 0" fill="#ea2a3d"/><g fill="#b7092b"><path d="m333.851562 383.667969h12.148438v35.175781h-12.148438zm0 0"/><path d="m186.023438 357h-10.902344c-2.5 0-5.992188 1.421875-7.769532 3.160156l-19.292968 18.886719v5.621094h42.507812v-23.171875c-.003906-2.472656-2.046875-4.496094-4.542968-4.496094zm0 0"/><path d="m128.949219 379.050781-19.296875-18.890625c-1.773438-1.738281-5.269532-3.160156-7.765625-3.160156h-10.902344c-2.5 0-4.542969 2.023438-4.542969 4.496094v23.171875h42.507813zm0 0"/></g><path d="m98.449219 384.667969v-23.171875c0-2.324219 1.8125-4.226563 4.101562-4.453125-.226562-.019531-.453125-.042969-.667969-.042969h-10.898437c-2.5 0-4.542969 2.023438-4.542969 4.496094v23.171875zm0 0" fill="#a00026"/><path d="m148.457031 384.667969v-7.453125c0-1.066406-.875-1.9375-1.941406-1.9375h-16.027344c-1.066406 0-1.9375.871094-1.9375 1.9375v7.453125zm0 0" fill="#fe3745"/><path d="m167.144531 464.972656c-2.484375 0-4.5-2.019531-4.5-4.5v-24.148437c0-2.480469 2.015625-4.5 4.5-4.5h29.433594v-13.980469h-123.324219v23.855469c27.03125 26.582031 60.207032 46.925781 97.195313 58.730469v-35.457032zm0 0" fill="#ffaf10"/><path d="m73.253906 417.84375v23.855469c7.761719 7.632812 16.027344 14.746093 24.746094 21.292969v-45.148438zm0 0" fill="#ef9614"/><path d="m207.828125 383.667969h-52.183594v35.175781h40.933594v-9.042969c0-1.855469 1.527344-3.363281 3.40625-3.363281h10.585937c.683594 0 1.464844.136719 2.257813.359375v-18.128906c0-2.75-2.25-5-5-5zm0 0" fill="#ef9614"/><path d="m69.175781 383.667969c-2.75 0-5 2.25-5 5v25.175781c0 2.75 2.25 5 5 5h52.183594v-35.175781zm0 0" fill="#ef9614"/><path d="m89 413.84375v-25.175781c0-2.75 2.25-5 5-5h-24.824219c-2.75 0-5 2.25-5 5v25.175781c0 2.75 2.25 5 5 5h24.824219c-2.75 0-5-2.25-5-5zm0 0" fill="#ef8318"/><path d="m123.011719 417.84375v61.675781c9.910156 5.699219 20.261719 10.714844 30.980469 15.007813v-76.683594zm0 0" fill="#fe3745"/><path d="m123.011719 417.84375v61.675781c3.933593 2.261719 7.941406 4.410157 12.007812 6.457031v-68.132812zm0 0" fill="#ea2a3d"/><path d="m120.855469 383.667969h35.289062v35.175781h-35.289062zm0 0" fill="#ea2a3d"/><path d="m120.855469 383.667969h12.144531v35.175781h-12.144531zm0 0" fill="#b7092b"/><path d="m296.65625 431.824219v-22.023438c0-2.402343-1.984375-4.363281-4.410156-4.363281h-10.582032c-2.425781 0-5.820312 1.378906-7.542968 3.066406l-18.742188 18.347656v4.972657zm0 0" fill="#fff"/><path d="m236.855469 431.824219v-4.972657l-18.746094-18.347656c-1.722656-1.6875-5.113281-3.066406-7.539063-3.066406h-10.585937c-2.425781 0-4.40625 1.960938-4.40625 4.363281v22.023438zm0 0" fill="#fff"/><path d="m207.695312 431.824219v-22.023438c0-2.195312 1.660157-4.007812 3.800782-4.304687-.320313-.039063-.632813-.058594-.925782-.058594h-10.585937c-2.425781 0-4.40625 1.960938-4.40625 4.363281v22.023438zm0 0" fill="#eef6ff"/><path d="m255.777344 431.824219v-6.765625c0-1.035156-.847656-1.878906-1.878906-1.878906h-15.5625c-1.035157 0-1.882813.84375-1.882813 1.878906v6.765625zm0 0" fill="#eef6ff"/><path d="m169.449219 464.972656v35.136719c21.683593 7.023437 44.683593 11.113281 68.542969 11.785156h14.015624c24.679688-.691406 48.441407-5.035156 70.773438-12.507812v-34.414063zm0 0" fill="#fe3745"/><path d="m169.449219 464.972656v35.136719c8.011719 2.597656 16.203125 4.789063 24.550781 6.554687v-41.691406zm0 0" fill="#ea2a3d"/><path d="m167.144531 431.324219c-2.75 0-5 2.25-5 5v24.148437c0 2.75 2.25 5 5 5h62.347657v-34.148437zm0 0" fill="#b7092b"/><path d="m325.09375 431.324219h-62.351562v34.148437h62.351562c2.75 0 5-2.25 5-5v-24.148437c0-2.75-2.25-5-5-5zm0 0" fill="#b7092b"/><path d="m187.050781 460.472656v-24.148437c0-2.75 2.25-5 5-5h-24.90625c-2.75 0-5 2.25-5 5v24.148437c0 2.75 2.25 5 5 5h24.90625c-2.75 0-5-2.25-5-5zm0 0" fill="#a00026"/><path d="m231.078125 464.972656v46.625c2.300781.128906 4.601563.230469 6.914063.296875h14.015624c3.0625-.085937 6.109376-.242187 9.144532-.4375v-46.484375zm0 0" fill="#eef6ff"/><path d="m231.078125 464.972656v46.625c2.300781.128906 4.601563.230469 6.914063.296875h5.9375v-46.921875zm0 0" fill="#d9eafc"/><path d="m228.988281 431.324219h34.253907v34.148437h-34.253907zm0 0" fill="#fff"/><path d="m228.988281 431.324219h12.011719v34.148437h-12.011719zm0 0" fill="#eef6ff"/><path d="m209 164c0 8.285156-6.714844 15-15 15s-15-6.714844-15-15 6.714844-15 15-15 15 6.714844 15 15zm0 0" fill="#fff"/><path d="m274 200c0 8.285156-6.714844 15-15 15s-15-6.714844-15-15 6.714844-15 15-15 15 6.714844 15 15zm0 0" fill="#ffd00d"/><path d="m236 268c0 8.285156-6.714844 15-15 15s-15-6.714844-15-15 6.714844-15 15-15 15 6.714844 15 15zm0 0" fill="#fff"/><path d="m293 133c0 8.285156-6.714844 15-15 15s-15-6.714844-15-15 6.714844-15 15-15 15 6.714844 15 15zm0 0" fill="#fe3745"/><path d="m319 303c0 8.285156-6.714844 15-15 15s-15-6.714844-15-15 6.714844-15 15-15 15 6.714844 15 15zm0 0" fill="#fe3745"/><path d="m157 301c0 8.285156-6.714844 15-15 15s-15-6.714844-15-15 6.714844-15 15-15 15 6.714844 15 15zm0 0" fill="#ffd00d"/><path d="m393.800781 221c-1.070312 0-1.992187-.765625-2.1875-1.820312-4.253906-23.117188-7.078125-25.941407-30.195312-30.195313-1.054688-.195313-1.816407-1.113281-1.816407-2.183594 0-1.070312.765626-1.992187 1.816407-2.183593 23.117187-4.257813 25.941406-7.078126 30.195312-30.199219.195313-1.054688 1.113281-1.816407 2.1875-1.816407 1.070313 0 1.988281.761719 2.183594 1.816407 4.257813 23.121093 7.078125 25.941406 30.199219 30.199219 1.050781.191406 1.816406 1.113281 1.816406 2.183593 0 1.070313-.765625 1.988281-1.816406 2.183594-23.121094 4.253906-25.941406 7.078125-30.199219 30.195313-.195313 1.054687-1.113281 1.820312-2.183594 1.820312zm0 0" fill="#fff"/><path d="m77.800781 299c-.820312 0-1.523437-.585938-1.675781-1.394531-3.257812-17.710938-5.421875-19.871094-23.132812-23.132813-.804688-.148437-1.394532-.851562-1.394532-1.671875 0-.820312.589844-1.527343 1.394532-1.671875 17.710937-3.261718 19.875-5.425781 23.132812-23.136718.148438-.804688.855469-1.390626 1.675781-1.390626.820313 0 1.523438.585938 1.671875 1.390626 3.261719 17.710937 5.421875 19.875 23.132813 23.136718.808593.144532 1.394531.851563 1.394531 1.671875 0 .820313-.585938 1.523438-1.394531 1.671875-17.710938 3.261719-19.871094 5.421875-23.132813 23.132813-.148437.808593-.851562 1.394531-1.671875 1.394531zm0 0" fill="#fff"/></svg>